<?xml version="1.0" encoding="UTF-8" standalone="no"?>
<svg
   xmlns:dc="http://purl.org/dc/elements/1.1/"
   xmlns:cc="http://creativecommons.org/ns#"
   xmlns:rdf="http://www.w3.org/1999/02/22-rdf-syntax-ns#"
   xmlns:svg="http://www.w3.org/2000/svg"
   xmlns="http://www.w3.org/2000/svg"
   viewBox="0 0 361.72 53.279999"
   height="53.279999"
   width="361.72"
   xml:space="preserve"
   id="svg2"
   version="1.1"><metadata
     id="metadata8"><rdf:RDF><cc:Work
         rdf:about=""><dc:format>image/svg+xml</dc:format><dc:type
           rdf:resource="http://purl.org/dc/dcmitype/StillImage" /></cc:Work></rdf:RDF></metadata><defs
     id="defs6"><clipPath
       id="clipPath20"
       clipPathUnits="userSpaceOnUse"><path
         id="path18"
         d="M 0,399.602 V 0 h 2712.93 v 399.602 z" /></clipPath></defs><g
     transform="matrix(1.3333333,0,0,-1.3333333,0,53.28)"
     id="g10"><g
       transform="scale(0.1)"
       id="g12"><g
         id="g14"><g
           clip-path="url(#clipPath20)"
           id="g16"><path
             id="path22"
             style="fill:#ffffff;fill-opacity:1;fill-rule:nonzero;stroke:none"
             d="m 800.027,220.336 c 0,-1.816 -0.507,-44.699 -44.73,-44.699 h -98.371 l -0.012,98.183 c 0.051,1.821 1.524,44.91 44.727,44.91 h 52.457 c 1.871,0 45.929,-0.523 45.929,-44.726 z M 753.27,336.617 h -51.629 c -48.411,0 -62.125,-40.82 -62.61,-62.613 V 113.035 c 0,-4.969 4.016,-8.961 8.953,-8.961 4.938,0 8.942,3.992 8.942,8.961 v 44.699 h 98.371 c 49.539,0 62.625,40.957 62.625,63.442 v 52.828 c 0,49.531 -41.75,62.613 -64.652,62.613" /><path
             id="path24"
             style="fill:#ffffff;fill-opacity:1;fill-rule:nonzero;stroke:none"
             d="m 1086.23,273.82 c 0.04,1.821 1.51,44.91 44.73,44.91 h 52.47 c 1.85,0 45.92,-0.523 45.92,-44.726 v -53.668 c 0,-1.816 -0.52,-44.699 -44.73,-44.699 h -98.39 z M 1238.3,121.953 c -1.72,0 -39.09,0.457 -44.13,36.367 41.66,4.922 53.08,41.895 53.08,62.856 v 52.828 c 0,49.531 -41.76,62.613 -64.67,62.613 h -51.62 c -48.42,0 -62.13,-40.82 -62.61,-62.613 V 113.035 c 0,-4.969 4,-8.961 8.94,-8.961 4.93,0 8.94,3.992 8.94,8.961 v 44.699 h 89.93 c 4.61,-42.148 41.85,-53.66 62.14,-53.66 4.93,0 8.95,3.992 8.95,8.961 0,4.914 -4.02,8.918 -8.95,8.918" /><path
             id="path26"
             style="fill:#ffffff;fill-opacity:1;fill-rule:nonzero;stroke:none"
             d="m 1291.31,336.617 c -4.95,0 -8.93,-4.008 -8.93,-8.941 V 113.035 c 0,-4.969 3.98,-8.961 8.93,-8.961 4.96,0 8.96,3.992 8.96,8.961 v 214.641 c 0,4.933 -4,8.941 -8.96,8.941" /><path
             id="path28"
             style="fill:#ffffff;fill-opacity:1;fill-rule:nonzero;stroke:none"
             d="m 1452.97,229.277 h -53.68 c -1.81,0 -43.81,0.512 -44.73,44.926 -0.28,13.098 3.24,23.492 10.47,30.899 12.96,13.339 34.07,13.628 34.26,13.628 h 53.68 c 4.92,0 8.91,4.004 8.91,8.946 0,4.933 -3.99,8.941 -8.91,8.941 h -53.68 c -1.18,0 -28.65,-0.199 -46.96,-18.898 -10.78,-10.989 -16.04,-25.754 -15.67,-43.887 1.02,-49.383 41.44,-62.422 62.63,-62.422 h 53.68 c 13.78,0 24.59,-3.871 32.07,-11.457 12.73,-12.914 12.64,-32.941 12.64,-33.281 0,-43.137 -40.17,-44.68 -44.71,-44.719 h -107.35 c -4.94,0 -8.96,-4.004 -8.96,-8.918 0,-4.969 4.02,-8.961 8.96,-8.961 h 107.35 c 21.64,0 62.58,13.074 62.58,62.422 0.03,1.121 0.36,27.488 -17.63,45.871 -10.99,11.215 -26.13,16.91 -44.95,16.91" /><path
             id="path30"
             style="fill:#ffffff;fill-opacity:1;fill-rule:nonzero;stroke:none"
             d="m 870.984,175.637 v 98.968 c 0,13.629 3.817,24.305 11.313,31.723 12.781,12.563 32.473,12.383 32.625,12.402 h 55.039 c 13.824,0 24.633,-3.867 32.129,-11.48 12.72,-12.895 12.59,-32.895 12.59,-33.246 v -98.367 z m 98.977,160.98 h -54.649 c -1.14,0 -27.226,0.387 -45.429,-17.414 -11.137,-10.887 -16.785,-25.902 -16.785,-44.598 v -161.57 c 0,-4.969 4.004,-8.961 8.945,-8.961 4.934,0 8.941,3.992 8.941,8.961 v 44.699 h 143.696 v -44.699 c 0,-4.969 4,-8.961 8.94,-8.961 4.94,0 8.94,3.992 8.94,8.961 v 160.797 c 0.02,1.109 0.4,27.477 -17.58,45.848 -11,11.234 -26.152,16.937 -45.019,16.937" /><path
             id="path32"
             style="fill:#ffffff;fill-opacity:1;fill-rule:nonzero;stroke:none"
             d="m 1719.41,336.617 c -8.18,0 -14.8,-6.625 -14.8,-14.789 v -86.687 h -122.83 v 86.687 c 0,8.164 -6.63,14.789 -14.77,14.789 -8.19,0 -14.82,-6.625 -14.82,-14.789 V 118.879 c 0,-8.195 6.63,-14.805 14.82,-14.805 8.14,0 14.77,6.61 14.77,14.805 v 86.664 h 122.83 v -86.664 c 0,-8.195 6.62,-14.805 14.8,-14.805 8.18,0 14.8,6.61 14.8,14.805 v 202.949 c 0,8.164 -6.62,14.789 -14.8,14.789" /><path
             id="path34"
             style="fill:#ffffff;fill-opacity:1;fill-rule:nonzero;stroke:none"
             d="m 2100.73,133.684 h -48.82 c -32.95,0 -35.72,30.3 -35.91,35.937 v 152.207 c 0,8.164 -6.63,14.789 -14.81,14.789 -8.15,0 -14.82,-6.625 -14.82,-14.789 V 169.277 c 0.52,-22.578 14.9,-65.203 65.54,-65.203 h 49.5 c 8.19,0 14.47,6.61 14.47,14.805 0,8.152 -6.99,14.805 -15.15,14.805" /><path
             id="path36"
             style="fill:#ffffff;fill-opacity:1;fill-rule:nonzero;stroke:none"
             d="m 2265.39,133.684 h -48.8 c -33,0 -35.77,30.3 -35.94,35.937 v 152.207 c 0,8.164 -6.63,14.789 -14.8,14.789 -8.16,0 -14.8,-6.625 -14.8,-14.789 V 169.277 c 0.5,-22.578 14.86,-65.203 65.54,-65.203 h 49.45 c 8.18,0 14.5,6.61 14.5,14.805 0,8.152 -6.97,14.805 -15.15,14.805" /><path
             id="path38"
             style="fill:#ffffff;fill-opacity:1;fill-rule:nonzero;stroke:none"
             d="m 2381.25,307.023 h 101.46 c 8.19,0 14.81,6.629 14.81,14.805 0,8.164 -6.62,14.789 -14.81,14.789 h -101.46 c -26.34,0 -65.55,-17.453 -65.55,-65.547 V 169.277 c 0.52,-22.547 14.87,-65.203 65.55,-65.203 h 101.46 c 8.19,0 14.81,6.61 14.81,14.805 0,8.152 -6.62,14.805 -14.81,14.805 h -101.46 c -33,0 -35.74,30.269 -35.94,35.937 v 35.922 h 136.25 c 8.19,0 14.8,6.625 14.8,14.793 0,8.18 -6.61,14.805 -14.8,14.805 h -136.25 v 35.929 c 0,33.746 30.03,35.868 35.94,35.953" /><path
             id="path40"
             style="fill:#ffffff;fill-opacity:1;fill-rule:nonzero;stroke:none"
             d="m 2698.13,336.617 c -8.16,0 -14.81,-6.625 -14.81,-14.789 V 220.336 c 0,-33.742 -30.01,-35.844 -35.94,-35.91 h -50.73 c -33.74,0 -35.87,30.004 -35.94,35.91 v 101.492 c 0,8.164 -6.65,14.789 -14.8,14.789 -8.17,0 -14.81,-6.625 -14.81,-14.789 V 220.336 c 0,-26.336 17.46,-65.539 65.55,-65.539 h 50.73 c 11.01,0 24.24,3.125 35.94,10.183 v -58.875 c 0,-8.1948 6.65,-14.8042 14.81,-14.8042 8.19,0 14.8,6.6094 14.8,14.8042 v 215.723 c 0,8.164 -6.61,14.789 -14.8,14.789" /><path
             id="path42"
             style="fill:#ffffff;fill-opacity:1;fill-rule:nonzero;stroke:none"
             d="m 1921.59,169.367 c 0,-0.148 0.04,-16.574 -10.1,-26.777 -5.93,-5.988 -14.37,-8.906 -25.8,-8.906 h -50.78 c -3.66,0 -35.92,0.996 -35.92,35.937 l -0.02,101.024 c 0.23,6.085 2.97,36.378 35.94,36.378 h 50.78 c 3.65,0 35.9,-1.015 35.9,-35.953 z m 29.61,101.703 c 0,48.094 -39.21,65.547 -65.51,65.547 h -50.78 c -50.66,0 -64.99,-42.664 -65.53,-65.547 V 169.621 c 0,-48.098 39.2,-65.547 65.53,-65.547 h 50.78 c 19.6,0 35.46,6.016 47.09,17.957 18.53,18.926 18.47,44.981 18.42,47.59 V 271.07" /><path
             id="path44"
             style="fill:#ffffff;fill-opacity:1;fill-rule:nonzero;stroke:none"
             d="M 116.449,138.594 H 66.9648 c -5.3554,0 -32.0429,1.554 -32.0429,32.023 v 98.985 c 0,5.336 1.5508,32.015 32.0429,32.015 H 116.43 c 9.632,0 17.422,7.828 17.422,17.465 0,9.645 -7.852,17.48 -17.5,17.48 H 66.9648 C 17.8359,336.562 0,296.504 0,269.602 V 17.4727 C 0,7.83203 7.8125,0 17.4609,0 c 9.6485,0 17.461,7.83203 17.461,17.4727 v 93.9253 c 10.7148,-5.371 22.2343,-7.746 32.0429,-7.746 h 49.4842 c 9.649,0 17.461,7.825 17.461,17.442 0,9.695 -7.812,17.5 -17.461,17.5" /><path
             id="path46"
             style="fill:#ffffff;fill-opacity:1;fill-rule:nonzero;stroke:none"
             d="m 412.457,138.594 c -0.137,0 -13.605,-0.496 -21.945,7.461 -5.059,4.843 -7.637,12.636 -7.637,23.086 v 98.554 c -0.066,4.692 1.484,18.61 9.391,26.633 4.863,4.926 11.765,7.324 21.136,7.324 9.649,0 17.457,7.813 17.457,17.461 0,9.649 -7.808,17.465 -17.457,17.465 -18.836,0 -34.851,-6.226 -46.308,-18.027 -18.965,-19.524 -19.223,-47.035 -19.129,-51.449 V 236.441 H 245.934 v 34.672 c 0,25.625 -10.227,40.617 -18.805,48.664 -19.16,17.993 -44.867,16.907 -47.734,16.739 -9.559,-0.594 -16.762,-8.809 -16.258,-18.36 0.515,-9.562 8.754,-16.863 18.308,-16.504 0.117,0.02 13.606,0.489 21.93,-7.476 5.055,-4.84 7.625,-12.614 7.625,-23.063 v -98.562 c 0.07,-4.707 -1.484,-18.606 -9.391,-26.653 -4.851,-4.941 -11.765,-7.304 -21.117,-7.304 -9.64,0 -17.472,-7.805 -17.472,-17.5 0,-9.617 7.832,-17.442 17.472,-17.442 18.824,0 34.856,6.219 46.305,18.02 18.965,19.551 19.226,47.07 19.137,51.465 v 32.746 h 102.031 v -36.742 c 0,-25.625 10.219,-40.633 18.781,-48.692 16.305,-15.301 37.336,-16.797 45.027,-16.797 1.34,0 2.289,0.051 2.715,0.078 9.555,0.618 16.778,8.79 16.27,18.34 -0.524,9.563 -8.707,16.844 -18.301,16.524" /><path
             id="path48"
             style="fill:#ffffff;fill-opacity:1;fill-rule:nonzero;stroke:none"
             d="m 534.945,40.6836 c -3.527,0 -6.386,2.8437 -6.386,6.3867 V 393.215 c 0,3.523 2.859,6.387 6.386,6.387 3.532,0 6.387,-2.864 6.387,-6.387 V 47.0703 c 0,-3.543 -2.855,-6.3867 -6.387,-6.3867 v 0" /></g></g></g></g></svg>